<svg version="1.1" id="Layer_1" xmlns="http://www.w3.org/2000/svg" xmlns:xlink="http://www.w3.org/1999/xlink" x="0px" y="0px" viewBox="0 0 48.5 48.5" style="enable-background:new 0 0 48.5 48.5;" xml:space="preserve">
<style type="text/css">
	.search-iocn-svg{stroke:currentColor;stroke-width:0.5;stroke-miterlimit:10;}
</style>
<path class="search-iocn-svg" d="M29.5,37.7c-3.4,0-6.1-0.6-8.7-1.9c-0.2-0.1-0.4-0.2-0.6,0c-3,3-6,6-9,9c-0.6,0.6-1.3,1.3-2.1,1.7
	c-2.5,1.4-5.6,0.6-7.2-1.6c-1.6-2.2-1.4-5.4,0.6-7.4c3.2-3.2,6.4-6.4,9.6-9.5c0.3-0.3,0.4-0.5,0.2-0.8c-3.5-7.2-2-15.7,3.6-21.3
	c3.5-3.4,7.7-5.3,12.6-5.4c9.2-0.3,17.2,6.2,18.9,15.4c1.9,10.1-5.2,20-15.3,21.6C31,37.6,30,37.6,29.5,37.7z M29,34.4
	c8.3,0,15.2-6.6,15.4-15.1c0.2-8.6-6.8-15.7-15.3-15.7c-8.6,0-15.3,6.9-15.5,15.1C13.5,27.4,20.5,34.4,29,34.4z M14.1,30.6
	c0-0.1,0.1-0.1,0.1-0.2c-0.1,0.1-0.3,0.2-0.4,0.4c-3,3-6,6-9,9c-1,1-1.1,2.5-0.1,3.5c1,1,2.5,0.9,3.5-0.1c3-3,6-6,9-9
	c0.1-0.1,0.3-0.2,0.5-0.3c-0.1,0-0.2,0-0.3,0C16.3,32.8,15.2,31.7,14.1,30.6z"></path>
</svg>