<svg version="1.1" id="Layer_1" xmlns="http://www.w3.org/2000/svg" xmlns:xlink="http://www.w3.org/1999/xlink" x="0px" y="0px" viewBox="0 0 7 8.5" style="enable-background:new 0 0 7 8.5;" xml:space="preserve">
<style type="text/css">
	.cart-iocn-svg{stroke:currentColor;stroke-width:0.12px !important;stroke-miterlimit:10;}
</style>
<path class="cart-iocn-svg" d="M2.1,2c0-0.2,0-0.4,0-0.7c0-0.5,0.3-0.9,0.8-1c0,0,0.1,0,0.1,0c0.3,0,0.7,0,1,0C4.6,0.4,5,0.8,5,1.3
	C5,1.5,5,1.7,5,2c0,0,0.1,0,0.1,0C5.4,2,5.7,2,6,2c0.1,0,0.1,0,0.2,0c0.1,0,0.1,0.1,0.1,0.2c0,0.5,0.1,1,0.1,1.6
	c0,0.6,0.1,1.1,0.1,1.7c0,0.5,0.1,1,0.1,1.5c0,0.3,0.1,0.6,0.1,0.9c0,0.1,0,0.2,0,0.3c0,0.1-0.1,0.2-0.2,0.2c0,0-0.1,0-0.1,0
	c-1.9,0-3.9,0-5.8,0c-0.2,0-0.4-0.2-0.4-0.4c0-0.6,0.1-1.2,0.1-1.8c0.1-0.6,0.1-1.3,0.2-1.9c0-0.6,0.1-1.2,0.1-1.7
	c0-0.1,0-0.1,0-0.2C0.7,2.1,0.8,2,0.9,2c0,0,0.1,0,0.1,0c0.3,0,0.7,0,1,0C2,2,2.1,2,2.1,2z M1.2,2.4c0,0.4-0.1,0.8-0.1,1.1
	C1,4.2,1,4.8,0.9,5.4c0,0.6-0.1,1.2-0.1,1.9c0,0.3,0.1,0.4,0.3,0.4c1.6,0,3.2,0,4.8,0c0,0,0.1,0,0.1,0c0.1,0,0.2-0.1,0.2-0.2
	c0,0,0-0.1,0-0.1c0-0.3-0.1-0.6-0.1-1C6.1,5.8,6.1,5.2,6,4.7C6,4.1,5.9,3.6,5.9,3c0-0.2,0-0.4-0.1-0.6c-0.2,0-0.4,0-0.6,0
	c0,0.2,0,0.5,0,0.7c0,0.2-0.1,0.3-0.3,0.3c-0.1,0-0.3-0.1-0.3-0.3c0-0.2,0-0.4,0-0.6c0,0,0-0.1,0-0.1c-0.7,0-1.3,0-2,0
	c0,0.2,0,0.5,0,0.7c0,0.2-0.1,0.3-0.3,0.3c-0.2,0-0.3-0.1-0.3-0.3c0-0.2,0-0.4,0-0.6c0,0,0-0.1,0-0.1C1.8,2.4,1.5,2.4,1.2,2.4z
	 M4.5,2c0-0.2,0-0.5,0-0.7C4.5,1,4.2,0.8,4,0.8c-0.3,0-0.6,0-0.8,0C2.8,0.8,2.6,1,2.6,1.3c0,0.2,0,0.4,0,0.6c0,0,0,0,0,0.1
	C3.2,2,3.9,2,4.5,2z"></path>
</svg>